<?xml version="1.0" encoding="UTF-8" standalone="no"?>
<svg
   xmlns:dc="http://purl.org/dc/elements/1.1/"
   xmlns:cc="http://creativecommons.org/ns#"
   xmlns:rdf="http://www.w3.org/1999/02/22-rdf-syntax-ns#"
   xmlns:svg="http://www.w3.org/2000/svg"
   xmlns="http://www.w3.org/2000/svg"
   xmlns:sodipodi="http://sodipodi.sourceforge.net/DTD/sodipodi-0.dtd"
   xmlns:inkscape="http://www.inkscape.org/namespaces/inkscape"
   enable-background="new 0 0 512 512"
   id="Layer_1"
   version="1.1"
   viewBox="0 0 367.39999 367.39999"
   xml:space="preserve"
   sodipodi:docname="Bulbizare.svg"
   width="367.39999"
   height="367.39999"
   inkscape:version="0.92.4 (5da689c313, 2019-01-14)"><metadata
     id="metadata294"><rdf:RDF><cc:Work
         rdf:about=""><dc:format>image/svg+xml</dc:format><dc:type
           rdf:resource="http://purl.org/dc/dcmitype/StillImage" /><dc:title></dc:title></cc:Work></rdf:RDF></metadata><defs
     id="defs292" /><sodipodi:namedview
     pagecolor="#ffffff"
     bordercolor="#666666"
     borderopacity="1"
     objecttolerance="10"
     gridtolerance="10"
     guidetolerance="10"
     inkscape:pageopacity="0"
     inkscape:pageshadow="2"
     inkscape:window-width="1920"
     inkscape:window-height="1001"
     id="namedview290"
     showgrid="false"
     fit-margin-top="0"
     fit-margin-left="0"
     fit-margin-right="0"
     fit-margin-bottom="0"
     inkscape:zoom="1.578125"
     inkscape:cx="183.7"
     inkscape:cy="183.7"
     inkscape:window-x="-9"
     inkscape:window-y="-9"
     inkscape:window-maximized="1"
     inkscape:current-layer="Layer_1" /><circle
     cx="183.7"
     cy="183.7"
     r="183.7"
     id="circle260"
     style="fill:#94f7cb" /><linearGradient
     gradientUnits="userSpaceOnUse"
     id="SVGID_1_"
     x1="256"
     x2="256"
     y1="370.5076"
     y2="79.333801"
     gradientTransform="translate(-72.300003,-72.300003)"><stop
       offset="0"
       style="stop-color:#FFFFFF;stop-opacity:0"
       id="stop262" /><stop
       offset="1"
       style="stop-color:#FFFFFF;stop-opacity:0.8"
       id="stop264" /></linearGradient><path
     d="m 183.7,298.2 c -5.4,0 -10.8,-0.8 -16,-2.4 L 20.599997,251.6 c -9,-21.5 -13.5000001,-44.4 -13.5000001,-67.9 C 7.0999969,86.299997 86.399997,6.9999969 183.8,6.9999969 c 46.9,0 91.1,18.0000001 124.3,50.8000001 33.2,32.8 51.8,76.700003 52.4,123.600003 0.3,24.4 -4.2,48 -13.5,70.2 l -147.3,44.3 c -5.2,1.5 -10.6,2.3 -16,2.3 z"
     id="path267"
     inkscape:connector-curvature="0"
     style="fill:url(#SVGID_1_)" /><path
     d="M 165.7,317.2 24.099997,274.6 C 55.699997,330 115.4,367.3 183.7,367.3 c 68.4,0 128,-37.3 159.6,-92.7 l -141.6,42.6 c -11.7,3.5 -24.3,3.5 -36,0 z"
     id="path269"
     inkscape:connector-curvature="0"
     style="fill:#6aad8d" /><path
     d="m 335.6,209.4 c 0,24.9 -20.1,45 -45,45 -24.9,0 -73.7,4.2 -73.7,-20.7 0,-24.9 48.8,-69.3 73.7,-69.3 24.9,0 45,20.2 45,45 z"
     id="path271"
     inkscape:connector-curvature="0"
     style="fill:#ffffff" /><path
     d="m 335.6,209.4 c 0,24.9 -20.1,45 -45,45 -24.9,0 -73.7,4.2 -73.7,-20.7 0,-24.9 48.8,-69.3 73.7,-69.3 24.9,0 45,20.2 45,45 z"
     id="path273"
     inkscape:connector-curvature="0"
     style="fill:#ffffff" /><path
     d="m 268.5,171.9 c -24.2,13.7 -51.5,43.3 -51.5,61.9 0,24.7 48.3,20.7 73.3,20.7 12.3,-8 20.4,-21.9 20.4,-37.7 -0.1,-23.9 -18.7,-43.5 -42.2,-44.9 z"
     id="path275"
     inkscape:connector-curvature="0"
     style="fill:#af4a60" /><circle
     cx="251.3"
     cy="213.8"
     r="8.6999998"
     id="circle277"
     style="fill:#ffffff" /><path
     d="m 31.899997,209.4 c 0,24.9 20.1,45 45,45 C 101.8,254.4 150.6,258.6 150.6,233.7 c 0,-24.9 -48.8,-69.3 -73.700003,-69.3 -24.9,0 -45,20.2 -45,45 z"
     id="path279"
     inkscape:connector-curvature="0"
     style="fill:#ffffff" /><path
     d="m 31.899997,209.4 c 0,24.9 20.1,45 45,45 C 101.8,254.4 150.6,258.6 150.6,233.7 c 0,-24.9 -48.8,-69.3 -73.700003,-69.3 -24.9,0 -45,20.2 -45,45 z"
     id="path281"
     inkscape:connector-curvature="0"
     style="fill:#ffffff" /><path
     d="M 98.999997,171.9 C 123.2,185.6 150.5,215.2 150.5,233.8 c 0,24.7 -48.3,20.7 -73.300003,20.7 -12.3,-8 -20.4,-21.9 -20.4,-37.7 0.1,-23.9 18.7,-43.5 42.2,-44.9 z"
     id="path283"
     inkscape:connector-curvature="0"
     style="fill:#af4a60" /><circle
     cx="116.2"
     cy="213.8"
     r="8.6999998"
     id="circle285"
     style="fill:#ffffff" /><path
     d="m 163.4,107.6 c -17.2,17.2 -24.6,40.5 -22.3,63 22.5,2.4 45.7,-5.1 63,-22.3 17.2,-17.2 24.6,-40.5 22.3,-63.000003 -22.5,-2.3 -45.8,5.1 -63,22.300003 z"
     id="path287"
     inkscape:connector-curvature="0"
     style="fill:#3b8f6f" /></svg>