<?xml version="1.0" encoding="UTF-8" standalone="no"?>
<svg
   xmlns:dc="http://purl.org/dc/elements/1.1/"
   xmlns:cc="http://creativecommons.org/ns#"
   xmlns:rdf="http://www.w3.org/1999/02/22-rdf-syntax-ns#"
   xmlns:svg="http://www.w3.org/2000/svg"
   xmlns="http://www.w3.org/2000/svg"
   xmlns:sodipodi="http://sodipodi.sourceforge.net/DTD/sodipodi-0.dtd"
   xmlns:inkscape="http://www.inkscape.org/namespaces/inkscape"
   enable-background="new 0 0 512 512"
   id="Layer_1"
   version="1.1"
   viewBox="0 0 367.39999 367.39999"
   xml:space="preserve"
   sodipodi:docname="Carapuce.svg"
   width="367.39999"
   height="367.39999"
   inkscape:version="0.92.4 (5da689c313, 2019-01-14)"><metadata
     id="metadata354"><rdf:RDF><cc:Work
         rdf:about=""><dc:format>image/svg+xml</dc:format><dc:type
           rdf:resource="http://purl.org/dc/dcmitype/StillImage" /><dc:title></dc:title></cc:Work></rdf:RDF></metadata><defs
     id="defs352" /><sodipodi:namedview
     pagecolor="#ffffff"
     bordercolor="#666666"
     borderopacity="1"
     objecttolerance="10"
     gridtolerance="10"
     guidetolerance="10"
     inkscape:pageopacity="0"
     inkscape:pageshadow="2"
     inkscape:window-width="640"
     inkscape:window-height="480"
     id="namedview350"
     showgrid="false"
     fit-margin-top="0"
     fit-margin-left="0"
     fit-margin-right="0"
     fit-margin-bottom="0"
     inkscape:zoom="0.4609375"
     inkscape:cx="183.7"
     inkscape:cy="183.7"
     inkscape:window-x="244"
     inkscape:window-y="106"
     inkscape:window-maximized="0"
     inkscape:current-layer="Layer_1" /><circle
     cx="183.7"
     cy="183.7"
     r="183.7"
     id="circle326"
     style="fill:#84c1d3" /><linearGradient
     gradientUnits="userSpaceOnUse"
     id="SVGID_1_"
     x1="255.9998"
     x2="255.9998"
     y1="432.66669"
     y2="79.333801"
     gradientTransform="translate(-72.300003,-72.300003)"><stop
       offset="0"
       style="stop-color:#FFFFFF;stop-opacity:0"
       id="stop328" /><stop
       offset="1"
       style="stop-color:#FFFFFF;stop-opacity:0.8"
       id="stop330" /></linearGradient><path
     d="M 183.7,360.4 C 86.299997,360.4 6.9999969,281.1 6.9999969,183.7 6.9999969,86.299997 86.299997,6.9999969 183.7,6.9999969 c 97.4,0 176.7,79.3000001 176.7,176.7000031 0,97.4 -79.3,176.7 -176.7,176.7 z"
     id="path333"
     inkscape:connector-curvature="0"
     style="fill:url(#SVGID_1_)" /><path
     d="m 304.7,269.5 c 5.4,-13.1 8.6,-29 8.6,-46.2 0,-44.9 -21.8,-81.3 -48.7,-81.3 -26.9,0 -48.7,36.4 -48.7,81.3 0,24.4 6.5,46.3 16.7,61.2 z"
     id="path335"
     inkscape:connector-curvature="0"
     style="fill:#141819" /><path
     d="m 286.1,215.1 c -4.6,19.8 -16.5,34 -30.4,34 -10.8,0 -20.4,-8.6 -26.3,-21.7 -4.6,3.2 -8.8,6.9 -12.5,11 2,18.3 7.8,34.4 15.8,46.2 l 72.1,-15 c 5.2,-12.5 8.3,-27.6 8.6,-43.8 -8.2,-5.3 -17.4,-8.9 -27.3,-10.7 z"
     id="path337"
     inkscape:connector-curvature="0"
     style="fill:#aa587e" /><path
     d="m 62.699997,269.5 c -5.4,-13.1 -8.6,-29 -8.6,-46.2 0,-44.9 21.8,-81.3 48.700003,-81.3 26.9,0 48.7,36.4 48.7,81.3 0,24.4 -6.5,46.3 -16.7,61.2 z"
     id="path339"
     inkscape:connector-curvature="0"
     style="fill:#141819" /><path
     d="m 81.299997,215.1 c 4.6,19.8 16.5,34 30.400003,34 10.8,0 20.4,-8.6 26.3,-21.7 4.6,3.2 8.8,6.9 12.5,11 -2,18.3 -7.8,34.4 -15.8,46.2 l -72.100003,-15 c -5.2,-12.5 -8.3,-27.6 -8.6,-43.8 8.2,-5.3 17.4,-8.9 27.3,-10.7 z"
     id="path341"
     inkscape:connector-curvature="0"
     style="fill:#aa587e" /><path
     d="m 189.9,323.8 c 15.9,-0.8 49.7,-11.2 113.9,-34.7 1.2,-0.4 0.6,-2 -0.6,-1.7 -11.5,2.5 -29.3,6.1 -47.5,9.1 -17.3,2.9 -33.9,8.1 -48.9,15.7 -5.2,2.6 -12.1,4.7 -21,4.7 -8.9,0 -15.8,-2.1 -21,-4.7 -15,-7.6 -31.6,-12.8 -48.9,-15.7 -18.200003,-3 -36.000003,-6.6 -47.500003,-9.1 -1.2,-0.3 -1.8,1.3 -0.6,1.7 C 132.1,312.6 165.8,323 181.7,323.8 c 1.1,0.1 2.4,0.1 4.1,0.1 1.6,0 3,0 4.1,-0.1 z"
     id="path343"
     inkscape:connector-curvature="0"
     style="fill:#569ab1" /><ellipse
     cx="255.59999"
     cy="196.90001"
     rx="25"
     ry="26"
     id="ellipse345"
     style="fill:#ffffff" /><ellipse
     cx="111.8"
     cy="196.90001"
     rx="25"
     ry="26"
     id="ellipse347"
     style="fill:#ffffff" /></svg>