<?xml version="1.0" encoding="UTF-8" standalone="no"?>
<svg
   xmlns:dc="http://purl.org/dc/elements/1.1/"
   xmlns:cc="http://creativecommons.org/ns#"
   xmlns:rdf="http://www.w3.org/1999/02/22-rdf-syntax-ns#"
   xmlns:svg="http://www.w3.org/2000/svg"
   xmlns="http://www.w3.org/2000/svg"
   xmlns:sodipodi="http://sodipodi.sourceforge.net/DTD/sodipodi-0.dtd"
   xmlns:inkscape="http://www.inkscape.org/namespaces/inkscape"
   enable-background="new 0 0 512 512"
   id="Layer_1"
   version="1.1"
   viewBox="0 0 367.39999 367.39999"
   xml:space="preserve"
   sodipodi:docname="Miaous.svg"
   width="367.39999"
   height="367.39999"
   inkscape:version="0.92.4 (5da689c313, 2019-01-14)"><metadata
     id="metadata472"><rdf:RDF><cc:Work
         rdf:about=""><dc:format>image/svg+xml</dc:format><dc:type
           rdf:resource="http://purl.org/dc/dcmitype/StillImage" /><dc:title></dc:title></cc:Work></rdf:RDF></metadata><defs
     id="defs470" /><sodipodi:namedview
     pagecolor="#ffffff"
     bordercolor="#666666"
     borderopacity="1"
     objecttolerance="10"
     gridtolerance="10"
     guidetolerance="10"
     inkscape:pageopacity="0"
     inkscape:pageshadow="2"
     inkscape:window-width="640"
     inkscape:window-height="480"
     id="namedview468"
     showgrid="false"
     fit-margin-top="0"
     fit-margin-left="0"
     fit-margin-right="0"
     fit-margin-bottom="0"
     inkscape:zoom="0.4609375"
     inkscape:cx="182.99998"
     inkscape:cy="186.26784"
     inkscape:window-x="0"
     inkscape:window-y="0"
     inkscape:window-maximized="0"
     inkscape:current-layer="Layer_1" /><circle
     cx="183.7"
     cy="183.7"
     r="183.7"
     id="circle415"
     style="fill:#f7eec1" /><linearGradient
     gradientUnits="userSpaceOnUse"
     id="SVGID_1_"
     x1="256.65439"
     x2="256.65439"
     y1="432.66681"
     y2="79.333801"
     gradientTransform="translate(-73.000015,-72.300003)"><stop
       offset="0"
       style="stop-color:#FFFFFF;stop-opacity:0"
       id="stop417" /><stop
       offset="1"
       style="stop-color:#FFFFFF;stop-opacity:0.8"
       id="stop419" /></linearGradient><path
     d="M 183.69998,360.4 C 86.199985,360.4 6.9999847,281.1 6.9999847,183.7 6.9999847,86.299997 86.199985,6.9999969 183.69998,6.9999969 c 97.5,0 176.6,79.3000001 176.6,176.7000031 0,97.4 -79.2,176.7 -176.6,176.7 z"
     id="path422"
     inkscape:connector-curvature="0"
     style="fill:url(#SVGID_1_)" /><path
     d="m 97.699985,37.599997 c 0,0 0.1,0.3 0.3,0.9 0.2,0.5 0.5,1.4 1,2.4 0.9,2 2.099995,4.9 3.799995,8.2 1.7,3.3 3.7,7.2 6.1,11.2 1.2,2 2.4,4.1 3.7,6.1 1.3,2.1 2.6,4.2 4,6.2 1.4,2.1 2.7,4.1 4.2,6.1 1.4,2 2.8,4 4.2,5.8 2.8,3.7 5.5,7.2 7.9,10 2.4,2.9 4.5,5.2 6.1,6.800003 0.7,0.8 1.4,1.4 1.8,1.8 0.4,0.4 0.7,0.6 0.7,0.6 0,0 -0.1,-0.3 -0.3,-0.9 -0.2,-0.5 -0.5,-1.4 -1,-2.4 -0.9,-2.000003 -2.1,-4.900003 -3.8,-8.200003 -1.7,-3.3 -3.7,-7.2 -6.1,-11.2 -1.2,-2 -2.4,-4.1 -3.7,-6.1 -1.3,-2.1 -2.6,-4.2 -4,-6.2 -1.4,-2.1 -2.7,-4.1 -4.2,-6.1 -1.4,-2 -2.8,-4 -4.2,-5.8 -2.8,-3.7 -5.5,-7.2 -7.9,-10 -2.4,-2.9 -4.5,-5.2 -6,-6.8 -0.699995,-0.8 -1.399995,-1.4 -1.799995,-1.8 -0.6,-0.4 -0.8,-0.6 -0.8,-0.6 z"
     id="path424"
     inkscape:connector-curvature="0"
     style="fill:#d5c7a2" /><path
     d="m 288.29998,37.599997 c 0,0 -0.1,0.3 -0.3,0.9 -0.2,0.5 -0.5,1.4 -1,2.4 -0.9,2 -2.1,4.9 -3.8,8.2 -1.7,3.3 -3.7,7.2 -6.1,11.2 -1.2,2 -2.4,4.1 -3.7,6.1 -1.3,2.1 -2.6,4.2 -4,6.2 -1.4,2.1 -2.7,4.1 -4.2,6.1 -1.4,2 -2.8,4 -4.2,5.8 -2.8,3.7 -5.5,7.2 -7.9,10 -2.4,2.9 -4.5,5.2 -6.1,6.800003 -0.7,0.8 -1.4,1.4 -1.8,1.8 -0.4,0.4 -0.7,0.6 -0.7,0.6 0,0 0.1,-0.3 0.3,-0.9 0.2,-0.5 0.5,-1.4 1,-2.4 0.9,-2.000003 2.1,-4.900003 3.8,-8.200003 1.7,-3.3 3.7,-7.2 6.1,-11.2 1.2,-2 2.4,-4.1 3.7,-6.1 1.3,-2.1 2.6,-4.2 4,-6.2 1.4,-2.1 2.7,-4.1 4.2,-6.1 1.4,-2 2.8,-4 4.2,-5.8 2.8,-3.7 5.5,-7.2 7.9,-10 2.4,-2.9 4.5,-5.2 6,-6.8 0.7,-0.8 1.4,-1.4 1.8,-1.8 0.6,-0.4 0.8,-0.6 0.8,-0.6 z"
     id="path426"
     inkscape:connector-curvature="0"
     style="fill:#d5c7a2" /><path
     d="m 361.79998,205.7 c 0,0 -0.3,0.2 -0.8,0.5 -0.5,0.3 -1.2,0.8 -2.2,1.3 -1.9,1.1 -4.7,2.6 -8,4.3 -3.4,1.7 -7.3,3.5 -11.6,5.3 -2.1,0.9 -4.4,1.8 -6.6,2.7 -2.3,0.9 -4.6,1.7 -6.9,2.6 -2.3,0.8 -4.7,1.6 -7,2.4 -2.3,0.8 -4.6,1.5 -6.8,2.1 -4.5,1.3 -8.7,2.4 -12.3,3.3 -3.6,0.8 -6.7,1.4 -8.9,1.8 -1.1,0.2 -2,0.3 -2.5,0.4 -0.6,0.1 -0.9,0.1 -0.9,0.1 0,0 0.3,-0.2 0.8,-0.5 0.5,-0.3 1.2,-0.8 2.2,-1.3 1.9,-1.1 4.7,-2.6 8,-4.3 3.4,-1.7 7.3,-3.5 11.6,-5.3 2.1,-0.9 4.4,-1.8 6.6,-2.7 2.3,-0.9 4.6,-1.7 6.9,-2.6 2.3,-0.8 4.7,-1.6 7,-2.4 2.3,-0.8 4.6,-1.5 6.8,-2.1 4.5,-1.3 8.7,-2.4 12.3,-3.3 3.6,-0.8 6.7,-1.4 8.9,-1.8 1.1,-0.2 2,-0.3 2.5,-0.4 0.6,0 0.9,-0.1 0.9,-0.1 z"
     id="path428"
     inkscape:connector-curvature="0"
     style="fill:#d5c7a2" /><path
     d="m 361.79998,231.4 c 0,0 -0.3,0.2 -0.8,0.5 -0.5,0.3 -1.2,0.8 -2.2,1.3 -1.9,1.1 -4.7,2.6 -8,4.3 -3.4,1.7 -7.3,3.5 -11.6,5.3 -2.1,0.9 -4.4,1.8 -6.6,2.7 -2.3,0.9 -4.6,1.7 -6.9,2.6 -2.3,0.8 -4.7,1.6 -7,2.4 -2.3,0.8 -4.6,1.5 -6.8,2.1 -4.5,1.3 -8.7,2.4 -12.3,3.3 -3.6,0.8 -6.7,1.4 -8.9,1.8 -1.1,0.2 -2,0.3 -2.5,0.4 -0.6,0.1 -0.9,0.1 -0.9,0.1 0,0 0.3,-0.2 0.8,-0.5 0.5,-0.3 1.2,-0.8 2.2,-1.3 1.9,-1.1 4.7,-2.6 8,-4.3 3.4,-1.7 7.3,-3.5 11.6,-5.3 2.1,-0.9 4.4,-1.8 6.6,-2.7 2.3,-0.9 4.6,-1.7 6.9,-2.6 2.3,-0.8 4.7,-1.6 7,-2.4 2.3,-0.8 4.6,-1.5 6.8,-2.1 4.5,-1.3 8.7,-2.4 12.3,-3.3 3.6,-0.8 6.7,-1.4 8.9,-1.8 1.1,-0.2 2,-0.3 2.5,-0.4 0.6,-0.1 0.9,-0.1 0.9,-0.1 z"
     id="path430"
     inkscape:connector-curvature="0"
     style="fill:#d5c7a2" /><path
     d="m 19.599985,205.7 c 0,0 0.3,0.2 0.8,0.5 0.5,0.3 1.2,0.8 2.2,1.3 1.9,1.1 4.7,2.6 8,4.3 3.4,1.7 7.3,3.5 11.6,5.3 2.1,0.9 4.4,1.8 6.6,2.7 2.3,0.9 4.6,1.7 6.9,2.6 2.3,0.8 4.7,1.6 7,2.4 2.3,0.8 4.6,1.5 6.8,2.1 4.5,1.3 8.7,2.4 12.3,3.3 3.6,0.8 6.7,1.4 8.9,1.8 1.1,0.2 2,0.3 2.5,0.4 0.6,0.1 0.9,0.1 0.9,0.1 0,0 -0.3,-0.2 -0.8,-0.5 -0.5,-0.3 -1.2,-0.8 -2.2,-1.3 -1.9,-1.1 -4.7,-2.6 -8,-4.3 -3.4,-1.7 -7.3,-3.5 -11.6,-5.3 -2.1,-0.9 -4.4,-1.8 -6.6,-2.7 -2.3,-0.9 -4.6,-1.7 -6.9,-2.6 -2.3,-0.8 -4.7,-1.6 -7,-2.4 -2.3,-0.8 -4.6,-1.5 -6.8,-2.1 -4.5,-1.3 -8.7,-2.4 -12.3,-3.3 -3.6,-0.8 -6.7,-1.4 -8.9,-1.8 -1.1,-0.2 -2,-0.3 -2.5,-0.4 -0.6,0 -0.9,-0.1 -0.9,-0.1 z"
     id="path432"
     inkscape:connector-curvature="0"
     style="fill:#d5c7a2" /><path
     d="m 19.599985,231.4 c 0,0 0.3,0.2 0.8,0.5 0.5,0.3 1.2,0.8 2.2,1.3 1.9,1.1 4.7,2.6 8,4.3 3.4,1.7 7.3,3.5 11.6,5.3 2.1,0.9 4.4,1.8 6.6,2.7 2.3,0.9 4.6,1.7 6.9,2.6 2.3,0.8 4.7,1.6 7,2.4 2.3,0.8 4.6,1.5 6.8,2.1 4.5,1.3 8.7,2.4 12.3,3.3 3.6,0.8 6.7,1.4 8.9,1.8 1.1,0.2 2,0.3 2.5,0.4 0.6,0.1 0.9,0.1 0.9,0.1 0,0 -0.3,-0.2 -0.8,-0.5 -0.5,-0.3 -1.2,-0.8 -2.2,-1.3 -1.9,-1.1 -4.7,-2.6 -8,-4.3 -3.4,-1.7 -7.3,-3.5 -11.6,-5.3 -2.1,-0.9 -4.4,-1.8 -6.6,-2.7 -2.3,-0.9 -4.6,-1.7 -6.9,-2.6 -2.3,-0.8 -4.7,-1.6 -7,-2.4 -2.3,-0.8 -4.6,-1.5 -6.8,-2.1 -4.5,-1.3 -8.7,-2.4 -12.3,-3.3 -3.6,-0.8 -6.7,-1.4 -8.9,-1.8 -1.1,-0.2 -2,-0.3 -2.5,-0.4 -0.6,-0.1 -0.9,-0.1 -0.9,-0.1 z"
     id="path434"
     inkscape:connector-curvature="0"
     style="fill:#d5c7a2" /><path
     d="m 191.29998,154.4 v 0 c -21.3,0 -38.7,-17.4 -38.7,-38.7 V 60.399997 c 0,-21.3 17.4,-38.7 38.7,-38.7 v 0 c 21.3,0 38.7,17.4 38.7,38.7 V 115.7 c -0.1,21.3 -17.5,38.7 -38.7,38.7 z"
     id="path436"
     inkscape:connector-curvature="0"
     style="fill:#f6e7b0" /><linearGradient
     gradientUnits="userSpaceOnUse"
     id="SVGID_2_"
     x1="264.25549"
     x2="264.25549"
     y1="221.7126"
     y2="99.097801"
     gradientTransform="translate(-73.000015,-72.300003)"><stop
       offset="0"
       style="stop-color:#FFFFFF;stop-opacity:0"
       id="stop438" /><stop
       offset="1"
       style="stop-color:#FFFFFF;stop-opacity:0.8"
       id="stop440" /></linearGradient><path
     d="m 191.29998,149.4 v 0 c -19.7,0 -35.7,-16.1 -35.7,-35.7 V 62.599997 c 0,-19.7 16.1,-35.7 35.7,-35.7 v 0 c 19.7,0 35.7,16.1 35.7,35.7 V 113.7 c 0,19.6 -16.1,35.7 -35.7,35.7 z"
     id="path443"
     inkscape:connector-curvature="0"
     style="fill:url(#SVGID_2_)" /><line
     stroke-miterlimit="10"
     x1="155.49998"
     x2="226.99998"
     y1="60.399994"
     y2="60.399994"
     id="line445"
     style="fill:none;stroke:#231f20;stroke-width:0.96139997;stroke-miterlimit:10" /><line
     stroke-miterlimit="10"
     x1="155.49998"
     x2="226.99998"
     y1="88.099991"
     y2="88.099991"
     id="line447"
     style="fill:none;stroke:#231f20;stroke-width:0.96139997;stroke-miterlimit:10" /><line
     stroke-miterlimit="10"
     x1="155.49998"
     x2="226.99998"
     y1="115.8"
     y2="115.8"
     id="line449"
     style="fill:none;stroke:#231f20;stroke-width:0.96139997;stroke-miterlimit:10" /><path
     d="m 226.99998,296.8 c 0,19.7 -16,35.7 -35.7,35.7 -19.7,0 -35.7,-16 -35.7,-35.7 z"
     id="path451"
     inkscape:connector-curvature="0"
     style="fill:#9b677e" /><polygon
     points="241.1,369.1 233.8,369.1 237.8,377.2 "
     id="polygon453"
     style="fill:#ffffff"
     transform="translate(-73.000015,-72.300003)" /><polygon
     points="293.1,369.1 285.8,369.1 289.8,377.2 "
     id="polygon455"
     style="fill:#ffffff"
     transform="translate(-73.000015,-72.300003)" /><g
     id="g465"
     transform="translate(-73.000015,-72.300003)"><ellipse
       cx="338.20001"
       cy="291.39999"
       rx="49.299999"
       ry="56.5"
       id="ellipse457"
       style="fill:#ffffff" /><path
       d="m 338.2,247.8 c 0,0 0.1,0.3 0.2,0.9 0.1,0.6 0.3,1.5 0.5,2.6 0.4,2.2 0.9,5.4 1.4,9.2 0.4,3.8 0.8,8.2 1.1,13 0.1,2.4 0.2,4.8 0.3,7.3 0.1,2.5 0.1,5 0.1,7.6 0,2.5 0,5.1 -0.1,7.6 -0.1,2.5 -0.2,4.9 -0.3,7.3 -0.3,4.7 -0.7,9.2 -1.1,13 -0.4,3.8 -0.9,7 -1.4,9.2 -0.2,1.1 -0.4,2 -0.5,2.6 -0.1,0.6 -0.2,0.9 -0.2,0.9 0,0 -0.1,-0.3 -0.2,-0.9 -0.1,-0.6 -0.3,-1.5 -0.5,-2.6 -0.4,-2.2 -0.9,-5.4 -1.4,-9.2 -0.4,-3.8 -0.8,-8.2 -1.1,-13 -0.1,-2.4 -0.2,-4.8 -0.3,-7.3 -0.1,-2.5 -0.1,-5 -0.1,-7.6 0,-2.5 0,-5.1 0.1,-7.6 0.1,-2.5 0.2,-4.9 0.3,-7.3 0.3,-4.7 0.7,-9.2 1.1,-13 0.4,-3.8 0.9,-7 1.4,-9.2 0.2,-1.1 0.4,-2 0.5,-2.6 0.2,-0.6 0.2,-0.9 0.2,-0.9 z"
       stroke-miterlimit="10"
       id="path459"
       inkscape:connector-curvature="0"
       style="fill:#231f20;stroke:#231f20;stroke-width:1.02100003;stroke-miterlimit:10" /><ellipse
       cx="190.3"
       cy="291.39999"
       rx="49.299999"
       ry="56.5"
       id="ellipse461"
       style="fill:#ffffff" /><path
       d="m 190.3,247.8 c 0,0 0.1,0.3 0.2,0.9 0.1,0.6 0.3,1.5 0.5,2.6 0.4,2.2 0.9,5.4 1.4,9.2 0.4,3.8 0.8,8.2 1.1,13 0.1,2.4 0.2,4.8 0.3,7.3 0.1,2.5 0.1,5 0.1,7.6 0,2.5 0,5.1 -0.1,7.6 -0.1,2.5 -0.2,4.9 -0.3,7.3 -0.3,4.7 -0.7,9.2 -1.1,13 -0.4,3.8 -0.9,7 -1.4,9.2 -0.2,1.1 -0.4,2 -0.5,2.6 -0.1,0.6 -0.2,0.9 -0.2,0.9 0,0 -0.1,-0.3 -0.2,-0.9 -0.1,-0.6 -0.3,-1.5 -0.5,-2.6 -0.4,-2.2 -0.9,-5.4 -1.4,-9.2 -0.4,-3.8 -0.8,-8.2 -1.1,-13 -0.1,-2.4 -0.2,-4.8 -0.3,-7.3 -0.1,-2.5 -0.1,-5 -0.1,-7.6 0,-2.5 0,-5.1 0.1,-7.6 0.1,-2.5 0.2,-4.9 0.3,-7.3 0.3,-4.7 0.7,-9.2 1.1,-13 0.4,-3.8 0.9,-7 1.4,-9.2 0.2,-1.1 0.4,-2 0.5,-2.6 0.1,-0.6 0.2,-0.9 0.2,-0.9 z"
       stroke-miterlimit="10"
       id="path463"
       inkscape:connector-curvature="0"
       style="fill:#231f20;stroke:#231f20;stroke-width:1.02100003;stroke-miterlimit:10" /></g></svg>