<?xml version="1.0" encoding="UTF-8" standalone="no"?>
<svg
   xmlns:dc="http://purl.org/dc/elements/1.1/"
   xmlns:cc="http://creativecommons.org/ns#"
   xmlns:rdf="http://www.w3.org/1999/02/22-rdf-syntax-ns#"
   xmlns:svg="http://www.w3.org/2000/svg"
   xmlns="http://www.w3.org/2000/svg"
   xmlns:sodipodi="http://sodipodi.sourceforge.net/DTD/sodipodi-0.dtd"
   xmlns:inkscape="http://www.inkscape.org/namespaces/inkscape"
   enable-background="new 0 0 512 512"
   id="Layer_1"
   version="1.1"
   viewBox="0 0 367.39999 367.39999"
   xml:space="preserve"
   sodipodi:docname="Pikachu.svg"
   width="367.39999"
   height="367.39999"
   inkscape:version="0.92.4 (5da689c313, 2019-01-14)"><metadata
     id="metadata650"><rdf:RDF><cc:Work
         rdf:about=""><dc:format>image/svg+xml</dc:format><dc:type
           rdf:resource="http://purl.org/dc/dcmitype/StillImage" /><dc:title></dc:title></cc:Work></rdf:RDF></metadata><defs
     id="defs648" /><sodipodi:namedview
     pagecolor="#ffffff"
     bordercolor="#666666"
     borderopacity="1"
     objecttolerance="10"
     gridtolerance="10"
     guidetolerance="10"
     inkscape:pageopacity="0"
     inkscape:pageshadow="2"
     inkscape:window-width="640"
     inkscape:window-height="480"
     id="namedview646"
     showgrid="false"
     fit-margin-top="0"
     fit-margin-left="0"
     fit-margin-right="0"
     fit-margin-bottom="0"
     inkscape:zoom="0.4609375"
     inkscape:cx="183.7"
     inkscape:cy="183.7"
     inkscape:window-x="0"
     inkscape:window-y="0"
     inkscape:window-maximized="0"
     inkscape:current-layer="Layer_1" /><circle
     cx="183.7"
     cy="183.7"
     r="183.7"
     id="circle588"
     style="fill:#f8e586" /><path
     d="m 321.4,238.5 c -31.7,0 -57.3,25.7 -57.3,57.3 0,16.8 7.2,32 18.8,42.4 32.6,-21 58.2,-52 72.3,-88.8 -9.5,-6.8 -21.1,-10.9 -33.8,-10.9 z"
     id="path590"
     inkscape:connector-curvature="0"
     style="fill:#de6c52" /><path
     d="m 46.299997,238.5 c 31.7,0 57.300003,25.7 57.300003,57.3 0,16.8 -7.200003,32 -18.800003,42.4 -32.6,-21 -58.2,-52 -72.3,-88.8 9.5,-6.8 21.1,-10.9 33.8,-10.9 z"
     id="path592"
     inkscape:connector-curvature="0"
     style="fill:#de6c52" /><linearGradient
     gradientUnits="userSpaceOnUse"
     id="SVGID_1_"
     x1="255.9994"
     x2="255.9994"
     y1="432.66681"
     y2="79.333801"
     gradientTransform="translate(-72.300003,-72.300003)"><stop
       offset="0"
       style="stop-color:#FFFFFF;stop-opacity:0"
       id="stop594" /><stop
       offset="1"
       style="stop-color:#FFFFFF;stop-opacity:0.8"
       id="stop596" /></linearGradient><path
     d="M 183.7,360.4 C 86.299997,360.4 6.9999969,281.1 6.9999969,183.7 6.9999969,86.299997 86.299997,6.9999969 183.7,6.9999969 c 97.4,0 176.7,79.3000001 176.7,176.7000031 0,97.4 -79.3,176.7 -176.7,176.7 z"
     id="path599"
     inkscape:connector-curvature="0"
     style="fill:url(#SVGID_1_)" /><g
     id="g633"
     transform="translate(-72.300003,-72.300003)"><circle
       cx="347.70001"
       cy="277"
       r="32.5"
       id="circle629"
       style="fill:#1b1613" /><circle
       cx="347.70001"
       cy="271"
       r="22.5"
       id="circle631"
       style="fill:#ffffff" /></g><g
     id="g639"
     transform="translate(-72.300003,-72.300003)"><circle
       cx="164.3"
       cy="277"
       r="32.5"
       id="circle635"
       style="fill:#1b1613" /><circle
       cx="164.3"
       cy="271"
       r="22.5"
       id="circle637"
       style="fill:#ffffff" /></g><path
     d="m 183.7,286.9 c 0,11 -8.9,19.9 -19.9,19.9 -11,0 -19.9,-8.9 -19.9,-19.9"
     stroke-miterlimit="10"
     id="path641"
     inkscape:connector-curvature="0"
     style="fill:none;stroke:#1b1613;stroke-width:8.80589962;stroke-linecap:round;stroke-miterlimit:10" /><path
     d="m 223.4,286.9 c 0,11 -8.9,19.9 -19.9,19.9 -11,0 -19.9,-8.9 -19.9,-19.9"
     stroke-miterlimit="10"
     id="path643"
     inkscape:connector-curvature="0"
     style="fill:none;stroke:#1b1613;stroke-width:8.80589962;stroke-linecap:round;stroke-miterlimit:10" /></svg>