<?xml version="1.0" encoding="UTF-8" standalone="no"?>
<svg
   xmlns:dc="http://purl.org/dc/elements/1.1/"
   xmlns:cc="http://creativecommons.org/ns#"
   xmlns:rdf="http://www.w3.org/1999/02/22-rdf-syntax-ns#"
   xmlns:svg="http://www.w3.org/2000/svg"
   xmlns="http://www.w3.org/2000/svg"
   xmlns:sodipodi="http://sodipodi.sourceforge.net/DTD/sodipodi-0.dtd"
   xmlns:inkscape="http://www.inkscape.org/namespaces/inkscape"
   enable-background="new 0 0 512 512"
   id="Layer_1"
   version="1.1"
   viewBox="0 0 367.39999 367.39999"
   xml:space="preserve"
   sodipodi:docname="Pokeball.svg"
   width="367.39999"
   height="367.39999"
   inkscape:version="0.92.4 (5da689c313, 2019-01-14)"><metadata
     id="metadata768"><rdf:RDF><cc:Work
         rdf:about=""><dc:format>image/svg+xml</dc:format><dc:type
           rdf:resource="http://purl.org/dc/dcmitype/StillImage" /><dc:title></dc:title></cc:Work></rdf:RDF></metadata><defs
     id="defs766" /><sodipodi:namedview
     pagecolor="#ffffff"
     bordercolor="#666666"
     borderopacity="1"
     objecttolerance="10"
     gridtolerance="10"
     guidetolerance="10"
     inkscape:pageopacity="0"
     inkscape:pageshadow="2"
     inkscape:window-width="640"
     inkscape:window-height="480"
     id="namedview764"
     showgrid="false"
     fit-margin-top="0"
     fit-margin-left="0"
     fit-margin-right="0"
     fit-margin-bottom="0"
     inkscape:zoom="0.4609375"
     inkscape:cx="183.7"
     inkscape:cy="183.7"
     inkscape:window-x="0"
     inkscape:window-y="0"
     inkscape:window-maximized="0"
     inkscape:current-layer="Layer_1" /><path
     d="M 183.7,0 C 82.3,0 0,82.3 0,183.7 H 367.3 C 367.4,82.3 285.1,0 183.7,0 Z"
     id="path732"
     inkscape:connector-curvature="0"
     style="fill:#ff2929" /><linearGradient
     gradientUnits="userSpaceOnUse"
     id="SVGID_1_"
     x1="256"
     x2="256"
     y1="256"
     y2="85.999901"
     gradientTransform="translate(-72.3,-72.3)"><stop
       offset="0"
       style="stop-color:#FFFFFF;stop-opacity:0"
       id="stop734" /><stop
       offset="1"
       style="stop-color:#FFFFFF"
       id="stop736" /></linearGradient><path
     d="m 183.7,13.7 c -93.9,0 -170,76.1 -170,170 h 340 c 0,-93.9 -76.1,-170 -170,-170 z"
     id="path739"
     inkscape:connector-curvature="0"
     style="fill:url(#SVGID_1_)" /><path
     d="M 183.7,367.4 C 82.3,367.4 0,285.2 0,183.7 h 367.3 c 0.1,101.4 -82.2,183.7 -183.6,183.7 z"
     id="path741"
     inkscape:connector-curvature="0"
     style="fill:#d1d3d4" /><linearGradient
     gradientUnits="userSpaceOnUse"
     id="SVGID_2_"
     x1="256"
     x2="256"
     y1="256"
     y2="426.00009"
     gradientTransform="translate(-72.3,-72.3)"><stop
       offset="0"
       style="stop-color:#FFFFFF;stop-opacity:0"
       id="stop743" /><stop
       offset="1"
       style="stop-color:#FFFFFF"
       id="stop745" /></linearGradient><path
     d="m 183.7,353.7 c -93.9,0 -170,-76.1 -170,-170 h 340 c 0,93.9 -76.1,170 -170,170 z"
     id="path748"
     inkscape:connector-curvature="0"
     style="fill:url(#SVGID_2_)" /><path
     d="M 367.1,173.8 H 0.3 c -0.2,3.3 -0.3,6.6 -0.3,9.9 0,3.3 0.1,6.6 0.3,9.9 h 366.8 c 0.2,-3.3 0.3,-6.6 0.3,-9.9 0,-3.3 -0.1,-6.6 -0.3,-9.9 z"
     id="path750"
     inkscape:connector-curvature="0"
     style="fill:#ffffff" /><circle
     cx="183.7"
     cy="183.7"
     r="49.200001"
     id="circle752"
     style="fill:#f5f5f5" /><circle
     cx="183.7"
     cy="183.7"
     r="33.400002"
     id="circle754"
     style="fill:#ff2929" /><linearGradient
     gradientUnits="userSpaceOnUse"
     id="SVGID_3_"
     x1="256"
     x2="256"
     y1="289.44791"
     y2="222.55209"
     gradientTransform="translate(-72.3,-72.3)"><stop
       offset="0"
       style="stop-color:#FFFFFF;stop-opacity:0"
       id="stop756" /><stop
       offset="1"
       style="stop-color:#FFFFFF;stop-opacity:0.5"
       id="stop758" /></linearGradient><circle
     cx="183.7"
     cy="183.7"
     r="33.400002"
     id="circle761"
     style="fill:url(#SVGID_3_)" /></svg>