<?xml version="1.0" encoding="UTF-8" standalone="no"?>
<svg
   xmlns:dc="http://purl.org/dc/elements/1.1/"
   xmlns:cc="http://creativecommons.org/ns#"
   xmlns:rdf="http://www.w3.org/1999/02/22-rdf-syntax-ns#"
   xmlns:svg="http://www.w3.org/2000/svg"
   xmlns="http://www.w3.org/2000/svg"
   xmlns:sodipodi="http://sodipodi.sourceforge.net/DTD/sodipodi-0.dtd"
   xmlns:inkscape="http://www.inkscape.org/namespaces/inkscape"
   enable-background="new 0 0 512 512"
   id="Layer_1"
   version="1.1"
   viewBox="0 0 367.39999 367.39999"
   xml:space="preserve"
   sodipodi:docname="Salameche.svg"
   width="367.39999"
   height="367.39999"
   inkscape:version="0.92.4 (5da689c313, 2019-01-14)"><metadata
     id="metadata849"><rdf:RDF><cc:Work
         rdf:about=""><dc:format>image/svg+xml</dc:format><dc:type
           rdf:resource="http://purl.org/dc/dcmitype/StillImage" /><dc:title></dc:title></cc:Work></rdf:RDF></metadata><defs
     id="defs847" /><sodipodi:namedview
     pagecolor="#ffffff"
     bordercolor="#666666"
     borderopacity="1"
     objecttolerance="10"
     gridtolerance="10"
     guidetolerance="10"
     inkscape:pageopacity="0"
     inkscape:pageshadow="2"
     inkscape:window-width="640"
     inkscape:window-height="480"
     id="namedview845"
     showgrid="false"
     fit-margin-top="0"
     fit-margin-left="0"
     fit-margin-right="0"
     fit-margin-bottom="0"
     inkscape:zoom="0.4609375"
     inkscape:cx="183.7"
     inkscape:cy="183.7"
     inkscape:window-x="452"
     inkscape:window-y="148"
     inkscape:window-maximized="0"
     inkscape:current-layer="Layer_1" /><circle
     cx="183.7"
     cy="183.7"
     r="183.7"
     id="circle817"
     style="fill:#edaa73" /><linearGradient
     gradientUnits="userSpaceOnUse"
     id="SVGID_1_"
     x1="255.9998"
     x2="255.9998"
     y1="432.66669"
     y2="79.333801"
     gradientTransform="translate(-72.300003,-72.300003)"><stop
       offset="0"
       style="stop-color:#FFFFFF;stop-opacity:0"
       id="stop819" /><stop
       offset="1"
       style="stop-color:#FFFFFF;stop-opacity:0.8"
       id="stop821" /></linearGradient><path
     d="M 183.7,360.4 C 86.299997,360.4 6.9999969,281.1 6.9999969,183.7 6.9999969,86.299997 86.299997,6.9999969 183.7,6.9999969 c 97.4,0 176.7,79.3000001 176.7,176.7000031 0,97.4 -79.3,176.7 -176.7,176.7 z"
     id="path824"
     inkscape:connector-curvature="0"
     style="fill:url(#SVGID_1_)" /><path
     d="m 304.7,269.5 c 5.4,-13.1 8.6,-29 8.6,-46.2 0,-44.9 -21.8,-81.3 -48.7,-81.3 -26.9,0 -48.7,36.4 -48.7,81.3 0,24.4 6.5,46.3 16.7,61.2 z"
     id="path826"
     inkscape:connector-curvature="0"
     style="fill:#141819" /><ellipse
     cx="255.59999"
     cy="196.90001"
     rx="25"
     ry="40.200001"
     id="ellipse828"
     style="fill:#ffffff" /><path
     d="m 286.1,215.1 c -4.6,19.8 -16.5,34 -30.4,34 -10.8,0 -20.4,-8.6 -26.3,-21.7 -4.6,3.2 -8.8,6.9 -12.5,11 2,18.3 7.8,34.4 15.8,46.2 l 72.1,-15 c 5.2,-12.5 8.3,-27.6 8.6,-43.8 -8.2,-5.3 -17.4,-8.9 -27.3,-10.7 z"
     id="path830"
     inkscape:connector-curvature="0"
     style="fill:#005d82" /><path
     d="m 62.699997,269.5 c -5.4,-13.1 -8.6,-29 -8.6,-46.2 0,-44.9 21.8,-81.3 48.700003,-81.3 26.9,0 48.7,36.4 48.7,81.3 0,24.4 -6.5,46.3 -16.7,61.2 z"
     id="path832"
     inkscape:connector-curvature="0"
     style="fill:#141819" /><ellipse
     cx="111.8"
     cy="196.90001"
     rx="25"
     ry="40.200001"
     id="ellipse834"
     style="fill:#ffffff" /><path
     d="m 81.299997,215.1 c 4.6,19.8 16.5,34 30.400003,34 10.8,0 20.4,-8.6 26.3,-21.7 4.6,3.2 8.8,6.9 12.5,11 -2,18.3 -7.8,34.4 -15.8,46.2 l -72.100003,-15 c -5.2,-12.5 -8.3,-27.6 -8.6,-43.8 8.2,-5.3 17.4,-8.9 27.3,-10.7 z"
     id="path836"
     inkscape:connector-curvature="0"
     style="fill:#005d82" /><path
     d="M 65.199997,280.9 156.5,303.3 c 17.9,4.4 36.5,4.4 54.4,0.1 l 92.9,-22.5 c 0,0 -115.3,139 -238.600003,0 z"
     id="path838"
     inkscape:connector-curvature="0"
     style="fill:#a5734e" /><polygon
     points="193.8,367 178.9,363.3 187,376.9 "
     id="polygon840"
     style="fill:#ffffff"
     transform="translate(-72.300003,-72.300003)" /><polygon
     points="320.5,367 335.4,363.3 327.3,376.9 "
     id="polygon842"
     style="fill:#ffffff"
     transform="translate(-72.300003,-72.300003)" /></svg>